<mxfile host="app.diagrams.net" modified="2023-03-27T01:58:30.675Z" agent="Mozilla/5.0 (Windows NT 10.0; Win64; x64) AppleWebKit/537.36 (KHTML, like Gecko) Chrome/111.0.0.0 Safari/537.36 Edg/111.0.1661.51" etag="iXw94DPl9xAYCV7LAnqz" version="21.1.1" type="device">
  <diagram name="Trang-1" id="MW7n9BlXydpbY3wQZpzy">
    <mxGraphModel dx="2447" dy="889" grid="1" gridSize="10" guides="1" tooltips="1" connect="1" arrows="1" fold="1" page="1" pageScale="1" pageWidth="827" pageHeight="1169" math="0" shadow="0">
      <root>
        <mxCell id="0" />
        <mxCell id="1" parent="0" />
        <mxCell id="6vBcidV7WXWXYshRpzxI-83" value="" style="rounded=0;whiteSpace=wrap;html=1;strokeWidth=3;" vertex="1" parent="1">
          <mxGeometry x="-440" y="160" width="1200" height="680" as="geometry" />
        </mxCell>
        <mxCell id="6vBcidV7WXWXYshRpzxI-14" style="rounded=0;orthogonalLoop=1;jettySize=auto;html=1;exitX=0.5;exitY=0;exitDx=0;exitDy=0;entryX=0.5;entryY=1;entryDx=0;entryDy=0;labelBackgroundColor=default;endArrow=none;endFill=0;strokeWidth=2;fontFamily=Helvetica;fontStyle=1" edge="1" parent="1" source="6vBcidV7WXWXYshRpzxI-1" target="6vBcidV7WXWXYshRpzxI-8">
          <mxGeometry relative="1" as="geometry" />
        </mxCell>
        <mxCell id="6vBcidV7WXWXYshRpzxI-17" style="rounded=0;orthogonalLoop=1;jettySize=auto;html=1;exitX=0.5;exitY=0;exitDx=0;exitDy=0;entryX=0.5;entryY=1;entryDx=0;entryDy=0;endArrow=none;endFill=0;strokeWidth=2;fontFamily=Helvetica;fontStyle=1" edge="1" parent="1" source="6vBcidV7WXWXYshRpzxI-1" target="6vBcidV7WXWXYshRpzxI-11">
          <mxGeometry relative="1" as="geometry" />
        </mxCell>
        <mxCell id="6vBcidV7WXWXYshRpzxI-18" style="rounded=0;orthogonalLoop=1;jettySize=auto;html=1;exitX=0.5;exitY=0;exitDx=0;exitDy=0;entryX=0.5;entryY=1;entryDx=0;entryDy=0;endArrow=none;endFill=0;strokeWidth=2;fontFamily=Helvetica;fontStyle=1" edge="1" parent="1" source="6vBcidV7WXWXYshRpzxI-1" target="6vBcidV7WXWXYshRpzxI-13">
          <mxGeometry relative="1" as="geometry" />
        </mxCell>
        <mxCell id="6vBcidV7WXWXYshRpzxI-1" value="Người dùng" style="rounded=0;whiteSpace=wrap;html=1;strokeWidth=2;fontStyle=1;fontFamily=Helvetica;shadow=1;fillColor=#d5e8d4;strokeColor=#82b366;" vertex="1" parent="1">
          <mxGeometry x="400" y="320" width="120" height="40" as="geometry" />
        </mxCell>
        <mxCell id="6vBcidV7WXWXYshRpzxI-2" value="Đăng nhập /&lt;br&gt;Đăng ký" style="rhombus;whiteSpace=wrap;html=1;fontStyle=1;fontFamily=Helvetica;strokeWidth=2;fillColor=#ffe6cc;strokeColor=#d79b00;shadow=1;" vertex="1" parent="1">
          <mxGeometry x="200" y="300" width="120" height="80" as="geometry" />
        </mxCell>
        <mxCell id="6vBcidV7WXWXYshRpzxI-21" style="rounded=0;orthogonalLoop=1;jettySize=auto;html=1;exitX=0.5;exitY=0;exitDx=0;exitDy=0;entryX=0.5;entryY=1;entryDx=0;entryDy=0;endArrow=none;endFill=0;strokeWidth=2;fontFamily=Helvetica;fontStyle=1" edge="1" parent="1" source="6vBcidV7WXWXYshRpzxI-4" target="6vBcidV7WXWXYshRpzxI-19">
          <mxGeometry relative="1" as="geometry" />
        </mxCell>
        <mxCell id="6vBcidV7WXWXYshRpzxI-22" style="rounded=0;orthogonalLoop=1;jettySize=auto;html=1;exitX=0.5;exitY=0;exitDx=0;exitDy=0;entryX=0.5;entryY=1;entryDx=0;entryDy=0;endArrow=none;endFill=0;strokeWidth=2;fontFamily=Helvetica;fontStyle=1" edge="1" parent="1" source="6vBcidV7WXWXYshRpzxI-4" target="6vBcidV7WXWXYshRpzxI-20">
          <mxGeometry relative="1" as="geometry" />
        </mxCell>
        <mxCell id="6vBcidV7WXWXYshRpzxI-4" value="Tài khoản" style="rounded=0;whiteSpace=wrap;html=1;strokeWidth=2;fontStyle=1;fontFamily=Helvetica;shadow=1;fillColor=#d5e8d4;strokeColor=#82b366;" vertex="1" parent="1">
          <mxGeometry y="320" width="120" height="40" as="geometry" />
        </mxCell>
        <mxCell id="6vBcidV7WXWXYshRpzxI-5" value="1" style="endArrow=none;html=1;rounded=0;entryX=0;entryY=0.5;entryDx=0;entryDy=0;exitX=1;exitY=0.5;exitDx=0;exitDy=0;strokeWidth=2;fontStyle=1;fontFamily=Helvetica;" edge="1" parent="1" source="6vBcidV7WXWXYshRpzxI-2" target="6vBcidV7WXWXYshRpzxI-1">
          <mxGeometry relative="1" as="geometry">
            <mxPoint x="330" y="390" as="sourcePoint" />
            <mxPoint x="490" y="390" as="targetPoint" />
          </mxGeometry>
        </mxCell>
        <mxCell id="6vBcidV7WXWXYshRpzxI-7" value="1" style="endArrow=none;html=1;rounded=0;entryX=0;entryY=0.5;entryDx=0;entryDy=0;strokeWidth=2;fontStyle=1;fontFamily=Helvetica;" edge="1" parent="1">
          <mxGeometry relative="1" as="geometry">
            <mxPoint x="120" y="340" as="sourcePoint" />
            <mxPoint x="200" y="339.5" as="targetPoint" />
          </mxGeometry>
        </mxCell>
        <mxCell id="6vBcidV7WXWXYshRpzxI-8" value="Email" style="ellipse;whiteSpace=wrap;html=1;align=center;fontStyle=5;fontFamily=Helvetica;strokeWidth=2;" vertex="1" parent="1">
          <mxGeometry x="400" y="200" width="120" height="40" as="geometry" />
        </mxCell>
        <mxCell id="6vBcidV7WXWXYshRpzxI-11" value="Số điện thoại" style="ellipse;whiteSpace=wrap;html=1;align=center;fontStyle=1;strokeWidth=2;fontFamily=Helvetica;" vertex="1" parent="1">
          <mxGeometry x="200" y="200" width="120" height="40" as="geometry" />
        </mxCell>
        <mxCell id="6vBcidV7WXWXYshRpzxI-13" value="Họ và tên" style="ellipse;whiteSpace=wrap;html=1;align=center;fontStyle=1;strokeWidth=2;fontFamily=Helvetica;" vertex="1" parent="1">
          <mxGeometry x="600" y="200" width="120" height="40" as="geometry" />
        </mxCell>
        <mxCell id="6vBcidV7WXWXYshRpzxI-19" value="Mật khẩu" style="ellipse;whiteSpace=wrap;html=1;align=center;fontStyle=1;strokeWidth=2;fontFamily=Helvetica;" vertex="1" parent="1">
          <mxGeometry x="-200" y="200" width="120" height="40" as="geometry" />
        </mxCell>
        <mxCell id="6vBcidV7WXWXYshRpzxI-20" value="Email" style="ellipse;whiteSpace=wrap;html=1;align=center;fontStyle=5;fontFamily=Helvetica;strokeWidth=2;" vertex="1" parent="1">
          <mxGeometry y="200" width="120" height="40" as="geometry" />
        </mxCell>
        <mxCell id="6vBcidV7WXWXYshRpzxI-35" style="rounded=0;orthogonalLoop=1;jettySize=auto;html=1;exitX=0;exitY=0.5;exitDx=0;exitDy=0;entryX=1;entryY=0.5;entryDx=0;entryDy=0;endArrow=none;endFill=0;strokeWidth=2;fontFamily=Helvetica;fontStyle=1" edge="1" parent="1" source="6vBcidV7WXWXYshRpzxI-24" target="6vBcidV7WXWXYshRpzxI-27">
          <mxGeometry relative="1" as="geometry" />
        </mxCell>
        <mxCell id="6vBcidV7WXWXYshRpzxI-36" style="rounded=0;orthogonalLoop=1;jettySize=auto;html=1;entryX=1;entryY=0.5;entryDx=0;entryDy=0;endArrow=none;endFill=0;exitX=0;exitY=0.5;exitDx=0;exitDy=0;strokeWidth=2;fontFamily=Helvetica;fontStyle=1" edge="1" parent="1" source="6vBcidV7WXWXYshRpzxI-24" target="6vBcidV7WXWXYshRpzxI-26">
          <mxGeometry relative="1" as="geometry" />
        </mxCell>
        <mxCell id="6vBcidV7WXWXYshRpzxI-38" style="rounded=0;orthogonalLoop=1;jettySize=auto;html=1;exitX=0;exitY=0.5;exitDx=0;exitDy=0;entryX=1;entryY=0.5;entryDx=0;entryDy=0;endArrow=none;endFill=0;strokeWidth=2;fontFamily=Helvetica;fontStyle=1" edge="1" parent="1" source="6vBcidV7WXWXYshRpzxI-24" target="6vBcidV7WXWXYshRpzxI-28">
          <mxGeometry relative="1" as="geometry" />
        </mxCell>
        <mxCell id="6vBcidV7WXWXYshRpzxI-39" style="rounded=0;orthogonalLoop=1;jettySize=auto;html=1;exitX=0;exitY=0.5;exitDx=0;exitDy=0;entryX=1;entryY=0.5;entryDx=0;entryDy=0;endArrow=none;endFill=0;strokeWidth=2;fontFamily=Helvetica;fontStyle=1" edge="1" parent="1" source="6vBcidV7WXWXYshRpzxI-24" target="6vBcidV7WXWXYshRpzxI-29">
          <mxGeometry relative="1" as="geometry" />
        </mxCell>
        <mxCell id="6vBcidV7WXWXYshRpzxI-40" style="rounded=0;orthogonalLoop=1;jettySize=auto;html=1;exitX=0;exitY=0.5;exitDx=0;exitDy=0;entryX=1;entryY=0.5;entryDx=0;entryDy=0;endArrow=none;endFill=0;strokeWidth=2;fontFamily=Helvetica;fontStyle=1" edge="1" parent="1" source="6vBcidV7WXWXYshRpzxI-24" target="6vBcidV7WXWXYshRpzxI-30">
          <mxGeometry relative="1" as="geometry" />
        </mxCell>
        <mxCell id="6vBcidV7WXWXYshRpzxI-24" value="Bộ phim" style="rounded=0;whiteSpace=wrap;html=1;strokeWidth=2;fontStyle=1;fontFamily=Helvetica;shadow=1;fillColor=#d5e8d4;strokeColor=#82b366;" vertex="1" parent="1">
          <mxGeometry x="-200" y="440" width="120" height="40" as="geometry" />
        </mxCell>
        <mxCell id="6vBcidV7WXWXYshRpzxI-26" value="Tên phim" style="ellipse;whiteSpace=wrap;html=1;align=center;fontStyle=1;strokeWidth=2;fontFamily=Helvetica;" vertex="1" parent="1">
          <mxGeometry x="-400" y="520" width="120" height="40" as="geometry" />
        </mxCell>
        <mxCell id="6vBcidV7WXWXYshRpzxI-27" value="Thể loại phim" style="ellipse;whiteSpace=wrap;html=1;align=center;fontStyle=1;strokeWidth=2;fontFamily=Helvetica;" vertex="1" parent="1">
          <mxGeometry x="-400" y="360" width="120" height="40" as="geometry" />
        </mxCell>
        <mxCell id="6vBcidV7WXWXYshRpzxI-28" value="Độ tuổi" style="ellipse;whiteSpace=wrap;html=1;align=center;fontStyle=1;strokeWidth=2;fontFamily=Helvetica;" vertex="1" parent="1">
          <mxGeometry x="-400" y="280" width="120" height="40" as="geometry" />
        </mxCell>
        <mxCell id="6vBcidV7WXWXYshRpzxI-29" value="Thông tin phim" style="ellipse;whiteSpace=wrap;html=1;align=center;fontStyle=1;strokeWidth=2;fontFamily=Helvetica;" vertex="1" parent="1">
          <mxGeometry x="-400" y="600" width="120" height="40" as="geometry" />
        </mxCell>
        <mxCell id="6vBcidV7WXWXYshRpzxI-30" value="Mã phim" style="ellipse;whiteSpace=wrap;html=1;align=center;fontStyle=5;fontFamily=Helvetica;strokeWidth=2;" vertex="1" parent="1">
          <mxGeometry x="-400" y="440" width="120" height="40" as="geometry" />
        </mxCell>
        <mxCell id="6vBcidV7WXWXYshRpzxI-31" value="Xem" style="rhombus;whiteSpace=wrap;html=1;fontStyle=1;fontFamily=Helvetica;strokeWidth=2;fillColor=#ffe6cc;strokeColor=#d79b00;shadow=1;" vertex="1" parent="1">
          <mxGeometry x="-200" y="300" width="120" height="80" as="geometry" />
        </mxCell>
        <mxCell id="6vBcidV7WXWXYshRpzxI-32" value="1" style="endArrow=none;html=1;rounded=0;entryX=0;entryY=0.5;entryDx=0;entryDy=0;strokeWidth=2;fontStyle=1;fontFamily=Helvetica;" edge="1" parent="1">
          <mxGeometry relative="1" as="geometry">
            <mxPoint x="-80" y="340.08" as="sourcePoint" />
            <mxPoint y="339.58" as="targetPoint" />
          </mxGeometry>
        </mxCell>
        <mxCell id="6vBcidV7WXWXYshRpzxI-33" value="1" style="endArrow=none;html=1;rounded=0;entryX=0.5;entryY=0;entryDx=0;entryDy=0;strokeWidth=2;fontStyle=1;fontFamily=Helvetica;exitX=0.5;exitY=1;exitDx=0;exitDy=0;" edge="1" parent="1" source="6vBcidV7WXWXYshRpzxI-31" target="6vBcidV7WXWXYshRpzxI-24">
          <mxGeometry relative="1" as="geometry">
            <mxPoint x="-60" y="410.5" as="sourcePoint" />
            <mxPoint x="20" y="410" as="targetPoint" />
          </mxGeometry>
        </mxCell>
        <mxCell id="6vBcidV7WXWXYshRpzxI-34" value="Lưu trữ /&lt;br&gt;Tìm kiếm" style="rhombus;whiteSpace=wrap;html=1;fontStyle=1;fontFamily=Helvetica;strokeWidth=2;fillColor=#ffe6cc;strokeColor=#d79b00;shadow=1;" vertex="1" parent="1">
          <mxGeometry x="-200" y="545" width="120" height="80" as="geometry" />
        </mxCell>
        <mxCell id="6vBcidV7WXWXYshRpzxI-41" value="1" style="endArrow=none;html=1;rounded=0;entryX=1;entryY=0;entryDx=0;entryDy=0;strokeWidth=2;fontStyle=1;fontFamily=Helvetica;exitX=0.5;exitY=1;exitDx=0;exitDy=0;" edge="1" parent="1" source="6vBcidV7WXWXYshRpzxI-4" target="6vBcidV7WXWXYshRpzxI-34">
          <mxGeometry relative="1" as="geometry">
            <mxPoint x="-70" y="350.08" as="sourcePoint" />
            <mxPoint x="10" y="349.58" as="targetPoint" />
          </mxGeometry>
        </mxCell>
        <mxCell id="6vBcidV7WXWXYshRpzxI-42" value="N" style="endArrow=none;html=1;rounded=0;entryX=0.5;entryY=0;entryDx=0;entryDy=0;strokeWidth=2;fontStyle=1;fontFamily=Helvetica;exitX=0.5;exitY=1;exitDx=0;exitDy=0;" edge="1" parent="1" source="6vBcidV7WXWXYshRpzxI-24" target="6vBcidV7WXWXYshRpzxI-34">
          <mxGeometry relative="1" as="geometry">
            <mxPoint x="-70" y="500.5" as="sourcePoint" />
            <mxPoint x="10" y="500" as="targetPoint" />
          </mxGeometry>
        </mxCell>
        <mxCell id="6vBcidV7WXWXYshRpzxI-76" style="rounded=0;orthogonalLoop=1;jettySize=auto;html=1;entryX=0.5;entryY=0;entryDx=0;entryDy=0;endArrow=none;endFill=0;strokeWidth=2;fontFamily=Helvetica;fontStyle=1" edge="1" parent="1" source="6vBcidV7WXWXYshRpzxI-43" target="6vBcidV7WXWXYshRpzxI-46">
          <mxGeometry relative="1" as="geometry" />
        </mxCell>
        <mxCell id="6vBcidV7WXWXYshRpzxI-77" style="rounded=0;orthogonalLoop=1;jettySize=auto;html=1;entryX=1;entryY=0.5;entryDx=0;entryDy=0;endArrow=none;endFill=0;strokeWidth=2;fontFamily=Helvetica;fontStyle=1" edge="1" parent="1" source="6vBcidV7WXWXYshRpzxI-43" target="6vBcidV7WXWXYshRpzxI-47">
          <mxGeometry relative="1" as="geometry" />
        </mxCell>
        <mxCell id="6vBcidV7WXWXYshRpzxI-78" style="rounded=0;orthogonalLoop=1;jettySize=auto;html=1;entryX=1;entryY=0.5;entryDx=0;entryDy=0;endArrow=none;endFill=0;strokeWidth=2;fontFamily=Helvetica;fontStyle=1" edge="1" parent="1" source="6vBcidV7WXWXYshRpzxI-43" target="6vBcidV7WXWXYshRpzxI-49">
          <mxGeometry relative="1" as="geometry" />
        </mxCell>
        <mxCell id="6vBcidV7WXWXYshRpzxI-79" style="rounded=0;orthogonalLoop=1;jettySize=auto;html=1;endArrow=none;endFill=0;strokeWidth=2;fontFamily=Helvetica;fontStyle=1" edge="1" parent="1" source="6vBcidV7WXWXYshRpzxI-43" target="6vBcidV7WXWXYshRpzxI-54">
          <mxGeometry relative="1" as="geometry" />
        </mxCell>
        <mxCell id="6vBcidV7WXWXYshRpzxI-80" style="rounded=0;orthogonalLoop=1;jettySize=auto;html=1;entryX=0;entryY=0.5;entryDx=0;entryDy=0;endArrow=none;endFill=0;strokeWidth=2;fontFamily=Helvetica;fontStyle=1" edge="1" parent="1" source="6vBcidV7WXWXYshRpzxI-43" target="6vBcidV7WXWXYshRpzxI-48">
          <mxGeometry relative="1" as="geometry" />
        </mxCell>
        <mxCell id="6vBcidV7WXWXYshRpzxI-43" value="Gói dịch vụ" style="rounded=0;whiteSpace=wrap;html=1;strokeWidth=2;fontStyle=1;fontFamily=Helvetica;shadow=1;fillColor=#d5e8d4;strokeColor=#82b366;" vertex="1" parent="1">
          <mxGeometry y="640" width="120" height="40" as="geometry" />
        </mxCell>
        <mxCell id="6vBcidV7WXWXYshRpzxI-62" style="rounded=0;orthogonalLoop=1;jettySize=auto;html=1;entryX=0;entryY=0.5;entryDx=0;entryDy=0;endArrow=none;endFill=0;exitX=1;exitY=0.5;exitDx=0;exitDy=0;strokeWidth=2;fontFamily=Helvetica;fontStyle=1" edge="1" parent="1" source="6vBcidV7WXWXYshRpzxI-44" target="6vBcidV7WXWXYshRpzxI-51">
          <mxGeometry relative="1" as="geometry" />
        </mxCell>
        <mxCell id="6vBcidV7WXWXYshRpzxI-63" style="rounded=0;orthogonalLoop=1;jettySize=auto;html=1;endArrow=none;endFill=0;exitX=1;exitY=0.5;exitDx=0;exitDy=0;entryX=0;entryY=0.5;entryDx=0;entryDy=0;strokeWidth=2;fontFamily=Helvetica;fontStyle=1" edge="1" parent="1" source="6vBcidV7WXWXYshRpzxI-44" target="6vBcidV7WXWXYshRpzxI-52">
          <mxGeometry relative="1" as="geometry" />
        </mxCell>
        <mxCell id="6vBcidV7WXWXYshRpzxI-44" value="Phương thức&lt;br&gt;thanh toán" style="rounded=0;whiteSpace=wrap;html=1;strokeWidth=2;fontStyle=1;fontFamily=Helvetica;shadow=1;fillColor=#d5e8d4;strokeColor=#82b366;" vertex="1" parent="1">
          <mxGeometry x="400" y="440" width="120" height="40" as="geometry" />
        </mxCell>
        <mxCell id="6vBcidV7WXWXYshRpzxI-46" value="Mã gói dịch vụ" style="ellipse;whiteSpace=wrap;html=1;align=center;fontStyle=5;fontFamily=Helvetica;strokeWidth=2;" vertex="1" parent="1">
          <mxGeometry y="760" width="120" height="40" as="geometry" />
        </mxCell>
        <mxCell id="6vBcidV7WXWXYshRpzxI-47" value="Tên gói dịch vụ" style="ellipse;whiteSpace=wrap;html=1;align=center;fontStyle=1;strokeWidth=2;fontFamily=Helvetica;" vertex="1" parent="1">
          <mxGeometry x="-200" y="680" width="120" height="40" as="geometry" />
        </mxCell>
        <mxCell id="6vBcidV7WXWXYshRpzxI-48" value="Thông tin&amp;nbsp;&lt;br&gt;gói dịch vụ" style="ellipse;whiteSpace=wrap;html=1;align=center;fontStyle=1;strokeWidth=2;fontFamily=Helvetica;" vertex="1" parent="1">
          <mxGeometry x="200" y="760" width="120" height="40" as="geometry" />
        </mxCell>
        <mxCell id="6vBcidV7WXWXYshRpzxI-49" value="Giá cả" style="ellipse;whiteSpace=wrap;html=1;align=center;fontStyle=1;strokeWidth=2;fontFamily=Helvetica;" vertex="1" parent="1">
          <mxGeometry x="-200" y="760" width="120" height="40" as="geometry" />
        </mxCell>
        <mxCell id="6vBcidV7WXWXYshRpzxI-51" value="Mã phương thức" style="ellipse;whiteSpace=wrap;html=1;align=center;fontStyle=5;fontFamily=Helvetica;strokeWidth=2;" vertex="1" parent="1">
          <mxGeometry x="600" y="280" width="120" height="40" as="geometry" />
        </mxCell>
        <mxCell id="6vBcidV7WXWXYshRpzxI-52" value="Tên hình thức&lt;br&gt;thanh toán" style="ellipse;whiteSpace=wrap;html=1;align=center;fontStyle=1;strokeWidth=2;fontFamily=Helvetica;" vertex="1" parent="1">
          <mxGeometry x="600" y="360" width="120" height="40" as="geometry" />
        </mxCell>
        <mxCell id="6vBcidV7WXWXYshRpzxI-53" value="Mã thanh toán" style="ellipse;whiteSpace=wrap;html=1;align=center;fontStyle=5;fontFamily=Helvetica;strokeWidth=2;" vertex="1" parent="1">
          <mxGeometry x="600" y="520" width="120" height="40" as="geometry" />
        </mxCell>
        <mxCell id="6vBcidV7WXWXYshRpzxI-54" value="Thời hạn&lt;br&gt;gói dịch vụ" style="ellipse;whiteSpace=wrap;html=1;align=center;fontStyle=1;strokeWidth=2;fontFamily=Helvetica;" vertex="1" parent="1">
          <mxGeometry x="200" y="680" width="120" height="40" as="geometry" />
        </mxCell>
        <mxCell id="6vBcidV7WXWXYshRpzxI-55" value="Ngày thanh toán" style="ellipse;whiteSpace=wrap;html=1;align=center;fontStyle=1;strokeWidth=2;fontFamily=Helvetica;" vertex="1" parent="1">
          <mxGeometry x="600" y="760" width="120" height="40" as="geometry" />
        </mxCell>
        <mxCell id="6vBcidV7WXWXYshRpzxI-56" value="Mã phương thức" style="ellipse;whiteSpace=wrap;html=1;align=center;fontStyle=1;strokeWidth=2;fontFamily=Helvetica;" vertex="1" parent="1">
          <mxGeometry x="600" y="600" width="120" height="40" as="geometry" />
        </mxCell>
        <mxCell id="6vBcidV7WXWXYshRpzxI-57" value="Mã gói&lt;br&gt;dịch vụ" style="ellipse;whiteSpace=wrap;html=1;align=center;fontStyle=1;strokeWidth=2;fontFamily=Helvetica;" vertex="1" parent="1">
          <mxGeometry x="600" y="680" width="120" height="40" as="geometry" />
        </mxCell>
        <mxCell id="6vBcidV7WXWXYshRpzxI-72" style="rounded=0;orthogonalLoop=1;jettySize=auto;html=1;exitX=1;exitY=0.5;exitDx=0;exitDy=0;entryX=0;entryY=0.5;entryDx=0;entryDy=0;endArrow=none;endFill=0;strokeWidth=2;fontFamily=Helvetica;fontStyle=1" edge="1" parent="1" source="6vBcidV7WXWXYshRpzxI-58" target="6vBcidV7WXWXYshRpzxI-53">
          <mxGeometry relative="1" as="geometry" />
        </mxCell>
        <mxCell id="6vBcidV7WXWXYshRpzxI-73" style="rounded=0;orthogonalLoop=1;jettySize=auto;html=1;entryX=0;entryY=0.5;entryDx=0;entryDy=0;endArrow=none;endFill=0;strokeWidth=2;fontFamily=Helvetica;fontStyle=1" edge="1" parent="1" target="6vBcidV7WXWXYshRpzxI-56">
          <mxGeometry relative="1" as="geometry">
            <mxPoint x="520" y="580" as="sourcePoint" />
          </mxGeometry>
        </mxCell>
        <mxCell id="6vBcidV7WXWXYshRpzxI-74" style="rounded=0;orthogonalLoop=1;jettySize=auto;html=1;entryX=0;entryY=0.5;entryDx=0;entryDy=0;endArrow=none;endFill=0;exitX=1;exitY=0.5;exitDx=0;exitDy=0;strokeWidth=2;fontFamily=Helvetica;fontStyle=1" edge="1" parent="1" source="6vBcidV7WXWXYshRpzxI-58" target="6vBcidV7WXWXYshRpzxI-57">
          <mxGeometry relative="1" as="geometry" />
        </mxCell>
        <mxCell id="6vBcidV7WXWXYshRpzxI-75" style="rounded=0;orthogonalLoop=1;jettySize=auto;html=1;entryX=0;entryY=0.5;entryDx=0;entryDy=0;endArrow=none;endFill=0;exitX=1;exitY=0.5;exitDx=0;exitDy=0;strokeWidth=2;fontFamily=Helvetica;fontStyle=1" edge="1" parent="1" source="6vBcidV7WXWXYshRpzxI-58" target="6vBcidV7WXWXYshRpzxI-55">
          <mxGeometry relative="1" as="geometry" />
        </mxCell>
        <mxCell id="6vBcidV7WXWXYshRpzxI-58" value="Lịch sử&lt;br&gt;thanh toán" style="rounded=0;whiteSpace=wrap;html=1;strokeWidth=2;fontStyle=1;fontFamily=Helvetica;shadow=1;fillColor=#d5e8d4;strokeColor=#82b366;" vertex="1" parent="1">
          <mxGeometry x="400" y="560" width="120" height="40" as="geometry" />
        </mxCell>
        <mxCell id="6vBcidV7WXWXYshRpzxI-61" value="Sở hữu" style="rhombus;whiteSpace=wrap;html=1;fontStyle=1;fontFamily=Helvetica;strokeWidth=2;fillColor=#ffe6cc;strokeColor=#d79b00;shadow=1;" vertex="1" parent="1">
          <mxGeometry x="200" y="420" width="120" height="80" as="geometry" />
        </mxCell>
        <mxCell id="6vBcidV7WXWXYshRpzxI-64" value="Thanh toán /&lt;br&gt;Thay đổi" style="rhombus;whiteSpace=wrap;html=1;fontStyle=1;fontFamily=Helvetica;strokeWidth=2;fillColor=#ffe6cc;strokeColor=#d79b00;shadow=1;" vertex="1" parent="1">
          <mxGeometry y="480" width="120" height="80" as="geometry" />
        </mxCell>
        <mxCell id="6vBcidV7WXWXYshRpzxI-65" value="1" style="endArrow=none;html=1;rounded=0;entryX=0.5;entryY=0;entryDx=0;entryDy=0;strokeWidth=2;fontStyle=1;fontFamily=Helvetica;" edge="1" parent="1" target="6vBcidV7WXWXYshRpzxI-64">
          <mxGeometry relative="1" as="geometry">
            <mxPoint x="60" y="360" as="sourcePoint" />
            <mxPoint x="-100" y="590" as="targetPoint" />
          </mxGeometry>
        </mxCell>
        <mxCell id="6vBcidV7WXWXYshRpzxI-66" value="1" style="endArrow=none;html=1;rounded=0;entryX=0.5;entryY=0;entryDx=0;entryDy=0;strokeWidth=2;fontStyle=1;fontFamily=Helvetica;exitX=0.5;exitY=1;exitDx=0;exitDy=0;" edge="1" parent="1" source="6vBcidV7WXWXYshRpzxI-64" target="6vBcidV7WXWXYshRpzxI-43">
          <mxGeometry relative="1" as="geometry">
            <mxPoint x="80" y="380" as="sourcePoint" />
            <mxPoint x="-90" y="600" as="targetPoint" />
          </mxGeometry>
        </mxCell>
        <mxCell id="6vBcidV7WXWXYshRpzxI-67" value="1" style="endArrow=none;html=1;rounded=0;entryX=0;entryY=0;entryDx=0;entryDy=0;strokeWidth=2;fontStyle=1;fontFamily=Helvetica;exitX=0.5;exitY=1;exitDx=0;exitDy=0;" edge="1" parent="1" source="6vBcidV7WXWXYshRpzxI-4" target="6vBcidV7WXWXYshRpzxI-61">
          <mxGeometry relative="1" as="geometry">
            <mxPoint x="90" y="390" as="sourcePoint" />
            <mxPoint x="-80" y="610" as="targetPoint" />
          </mxGeometry>
        </mxCell>
        <mxCell id="6vBcidV7WXWXYshRpzxI-68" value="N" style="endArrow=none;html=1;rounded=0;entryX=0;entryY=0.5;entryDx=0;entryDy=0;strokeWidth=2;fontStyle=1;fontFamily=Helvetica;exitX=1;exitY=0.5;exitDx=0;exitDy=0;" edge="1" parent="1" source="6vBcidV7WXWXYshRpzxI-61" target="6vBcidV7WXWXYshRpzxI-44">
          <mxGeometry relative="1" as="geometry">
            <mxPoint x="350" y="500" as="sourcePoint" />
            <mxPoint x="350" y="580" as="targetPoint" />
          </mxGeometry>
        </mxCell>
        <mxCell id="6vBcidV7WXWXYshRpzxI-69" value="Xem" style="rhombus;whiteSpace=wrap;html=1;fontStyle=1;fontFamily=Helvetica;strokeWidth=2;fillColor=#ffe6cc;strokeColor=#d79b00;shadow=1;" vertex="1" parent="1">
          <mxGeometry x="200" y="540" width="120" height="80" as="geometry" />
        </mxCell>
        <mxCell id="6vBcidV7WXWXYshRpzxI-70" value="1" style="endArrow=none;html=1;rounded=0;entryX=0;entryY=0;entryDx=0;entryDy=0;strokeWidth=2;fontStyle=1;fontFamily=Helvetica;exitX=0.5;exitY=1;exitDx=0;exitDy=0;" edge="1" parent="1" source="6vBcidV7WXWXYshRpzxI-4" target="6vBcidV7WXWXYshRpzxI-69">
          <mxGeometry relative="1" as="geometry">
            <mxPoint x="50" y="410" as="sourcePoint" />
            <mxPoint x="190" y="510" as="targetPoint" />
          </mxGeometry>
        </mxCell>
        <mxCell id="6vBcidV7WXWXYshRpzxI-71" value="N" style="endArrow=none;html=1;rounded=0;entryX=0;entryY=0.5;entryDx=0;entryDy=0;strokeWidth=2;fontStyle=1;fontFamily=Helvetica;exitX=1;exitY=0.5;exitDx=0;exitDy=0;" edge="1" parent="1" source="6vBcidV7WXWXYshRpzxI-69">
          <mxGeometry relative="1" as="geometry">
            <mxPoint x="320" y="579.5" as="sourcePoint" />
            <mxPoint x="400" y="579.5" as="targetPoint" />
          </mxGeometry>
        </mxCell>
        <mxCell id="6vBcidV7WXWXYshRpzxI-81" value="Liên kết&lt;br&gt;thanh toán" style="ellipse;whiteSpace=wrap;html=1;align=center;fontStyle=1;strokeWidth=2;fontFamily=Helvetica;" vertex="1" parent="1">
          <mxGeometry x="600" y="440" width="120" height="40" as="geometry" />
        </mxCell>
        <mxCell id="6vBcidV7WXWXYshRpzxI-82" style="rounded=0;orthogonalLoop=1;jettySize=auto;html=1;endArrow=none;endFill=0;exitX=1;exitY=0.5;exitDx=0;exitDy=0;entryX=0;entryY=0.5;entryDx=0;entryDy=0;strokeWidth=2;fontFamily=Helvetica;fontStyle=1" edge="1" parent="1" source="6vBcidV7WXWXYshRpzxI-44" target="6vBcidV7WXWXYshRpzxI-81">
          <mxGeometry relative="1" as="geometry">
            <mxPoint x="530" y="470" as="sourcePoint" />
            <mxPoint x="610" y="390" as="targetPoint" />
          </mxGeometry>
        </mxCell>
      </root>
    </mxGraphModel>
  </diagram>
</mxfile>
